<?xml version="1.0" encoding="utf-8"?>
<!-- Generator: Adobe Illustrator 25.1.0, SVG Export Plug-In . SVG Version: 6.00 Build 0)  -->
<svg version="1.1" id="Layer_1" xmlns="http://www.w3.org/2000/svg" xmlns:xlink="http://www.w3.org/1999/xlink" x="0px" y="0px"
	 viewBox="0 0 2009.5 490.8" style="enable-background:new 0 0 2009.5 490.8;" xml:space="preserve">
<style type="text/css">
	.st0{fill:#FFFFFF;}
	.st1{fill:url(#Path_446-2_1_);}
	.st2{fill:url(#Path_447-2_1_);}
	.st3{fill:url(#Path_448-2_1_);}
</style>
<rect y="0" class="st0" width="2009.5" height="490.8"/>
<g id="Group_298" transform="translate(45 65)">
	<g transform="matrix(1, 0, 0, 1, -45, -65)">
		
			<image style="overflow:visible;opacity:0.2;" width="2130" height="436" xlink:href="9A05ECE62606A53E.png"  transform="matrix(1 0 0 1 -60 87.8)">
		</image>
		<g>
			<g>
				
					<linearGradient id="Path_446-2_1_" gradientUnits="userSpaceOnUse" x1="2120.395" y1="664.2957" x2="2120.395" y2="663.509" gradientTransform="matrix(1919.5146 0 0 -400.7733 -4069124.5 266409.875)">
					<stop  offset="0" style="stop-color:#EDDB33;stop-opacity:0.2"/>
					<stop  offset="1" style="stop-color:#EAD832;stop-opacity:0.302"/>
				</linearGradient>
				<path id="Path_446-2_12_" class="st1" d="M0,379.1c0,0,122.4,17,620.5-105.7s860.9-131.7,1136.7,0
					c229.9,109.8,252.3,138.3,252.3,138.3v79.8L0,493.2V379.1z"/>
			</g>
		</g>
	</g>
	<g transform="matrix(1, 0, 0, 1, -45, -65)">
		
			<linearGradient id="Path_447-2_1_" gradientUnits="userSpaceOnUse" x1="2120.395" y1="663.8925" x2="2120.395" y2="663.0527" gradientTransform="matrix(1919.5151 0 0 -301.1957 -4069125.75 200201.7656)">
			<stop  offset="0" style="stop-color:#EDDB33"/>
			<stop  offset="1" style="stop-color:#EAD832;stop-opacity:0.8"/>
		</linearGradient>
		<path id="Path_447-2" class="st2" d="M2009.5,335.6c0,0-198.2,182.4-638.3,38.1C889.9,215.9,708,198.8,252.3,318.1
			C-38.2,394.2,1.2,426.4,1.2,426.4v66.7h2008.3V335.6z"/>
	</g>
	<g transform="matrix(1, 0, 0, 1, -45, -65)">
		
			<linearGradient id="Path_448-2_1_" gradientUnits="userSpaceOnUse" x1="2120.395" y1="663.5056" x2="2120.395" y2="662.7288" gradientTransform="matrix(1919.5146 0 0 -256.0826 -4069124.5 170206.5156)">
			<stop  offset="0" style="stop-color:#448DB6"/>
			<stop  offset="0" style="stop-color:#139CAC;stop-opacity:0.8"/>
			<stop  offset="1" style="stop-color:#448DB6"/>
		</linearGradient>
		<path id="Path_448-2" class="st3" d="M0,415.9c0,0,193,83.8,638.3-24.3s834.5-129.3,1118.9-47.3c249.6,69.5,252.4,90.9,252.4,90.9
			l-0.1,56.2L0,493.2V415.9z"/>
	</g>
</g>
</svg>
