<?xml version="1.0" encoding="utf-8"?>
<!-- Generator: Adobe Illustrator 26.0.1, SVG Export Plug-In . SVG Version: 6.00 Build 0)  -->
<svg version="1.1" id="Layer_1" xmlns="http://www.w3.org/2000/svg" xmlns:xlink="http://www.w3.org/1999/xlink" x="0px" y="0px"
	 viewBox="0 0 918 610.6" style="enable-background:new 0 0 918 610.6;" xml:space="preserve">
<style type="text/css">
	.st0{fill:#423F3C;}
</style>
<g>
	<path class="st0" d="M180.1,340.4C114.9,341,61.6,288.6,61,223.4c-0.6-65.2,51.8-118.5,117-119.1c0.7,0,1.4,0,2.2,0V340.4z"/>
	<path class="st0" d="M277.4,373.2c0-48.6-29.8-92.3-75.2-110v220C247.5,465.5,277.4,421.8,277.4,373.2z"/>
	<path class="st0" d="M202.4,201.6c42.6-0.5,76.8-35.4,76.3-78.1c-0.5-41.9-34.4-75.8-76.3-76.3V201.6z"/>
	<path class="st0" d="M125.4,471.4c0,37.7,21.1,72.2,54.6,89.5v-179C146.5,399.2,125.4,433.7,125.4,471.4z"/>
	<path class="st0" d="M375.4,294.1c0-30.1,17.7-49.2,45.8-49.2c19.9,0,35.4,12.5,39.6,32.1l-10.3,2.5c-2.7-15.4-14.2-25-29.3-25
		c-21.5,0-35,15.4-35,39.6c0,24.2,14.8,39.5,37.9,39.5c18.4,0,31.8-11.7,34.5-30.1l10.4,2.6c-3.5,22.7-21,37.1-44.9,37.1
		C394.2,343.1,375.4,324,375.4,294.1z"/>
	<path class="st0" d="M475.4,307.1c0-21.5,13.9-35.5,35-35.5s35.1,14.1,35.1,35.5s-13.9,35.4-35.1,35.4
		C489.2,342.5,475.4,328.4,475.4,307.1z M535.6,307.1c0-16-9.9-26.4-25.1-26.4s-25.1,10.4-25.1,26.4c0,16,9.9,26.4,25.1,26.4
		S535.6,323.1,535.6,307.1L535.6,307.1z"/>
	<path class="st0" d="M554.7,254.1c0-4.3,2.9-7.2,7.3-7.2c4.4,0,7.4,2.9,7.4,7.2c0,4.3-3.1,7.3-7.4,7.3
		C557.7,261.4,554.7,258.5,554.7,254.1z M556.9,274.2h9.9v65.7h-9.9V274.2z"/>
	<path class="st0" d="M581.1,244.2h9.9v95.7h-9.9V244.2z"/>
	<path class="st0" d="M601.4,306.3c0-20.2,14.1-34.8,33.6-34.8c19.3,0,31.9,14.6,32.1,34.9c0,1.2,0,2.6-0.1,3.9h-55.3
		c1.4,13.7,11.9,23.2,26.2,23.2c10.3,0,19-5.3,22.6-12.5l8.6,3.5c-4.3,10.6-16.7,18-31.4,18C616.8,342.5,601.4,327.3,601.4,306.3z
		 M656.6,301.6c-1.3-13.4-9.8-21-21.7-21c-12.2,0-21.2,8.5-23,21H656.6z"/>
	<path class="st0" d="M676.1,307.1c0-20.6,14.1-35.5,33.3-35.5c10.3-0.2,19.9,5,25.4,13.7h0.1v-41h10v95.7h-8.7l-0.9-11.3h-0.1
		c-5.5,8.8-15.3,14.1-25.6,13.9C690.3,342.5,676.1,327.5,676.1,307.1z M735.3,307.1c0-15-10.4-26.4-24.6-26.4S686,292.1,686,307.1
		s10.5,26.5,24.7,26.5S735.3,321.9,735.3,307.1z"/>
</g>
<g>
	<path class="st0" d="M394,391.8h2.8l-16.9,42.6h-2.8L394,391.8z M383.5,419.7H408v2.3h-24.5V419.7z M394.9,391.8h2.8l16.9,42.6
		h-2.8L394.9,391.8z"/>
	<path class="st0" d="M433.8,391.8h2.7v42.6h-2.7V391.8z M435.1,432.1h14.6c6.1,0,10.5-1.7,13-5c2.6-3.3,3.8-8,3.8-14.1
		c0-6.1-1.3-10.7-3.8-14c-2.6-3.3-6.9-4.9-13-4.9h-14.6v-2.3h14.7c4.5,0,8.2,0.9,11.2,2.8c2.9,1.8,5,4.4,6.4,7.5
		c1.3,3.2,2,6.8,2,10.9c0,4.2-0.7,7.9-2,11.1c-1.3,3.2-3.5,5.7-6.4,7.6s-6.6,2.8-11.2,2.8h-14.7V432.1z"/>
	<path class="st0" d="M485.3,435.3c-2.9,0-5.4-0.8-7.4-2.3c-2-1.5-3-3.8-3-6.8c0-1.8,0.4-3.3,1.1-4.6c0.7-1.3,1.8-2.3,3.2-3.1
		c1.5-0.8,3.3-1.4,5.5-1.8l8.4-1.4c2-0.3,3.4-0.8,4.2-1.4c0.8-0.6,1.2-1.5,1.2-2.9c0-2.3-0.7-4.1-2.1-5.5c-1.4-1.4-3.9-2.1-7.4-2.1
		c-3.8,0-6.4,0.8-8,2.5c-1.6,1.7-2.5,3.8-2.7,6.5h-2.4c0.2-2.3,0.8-4.2,1.8-5.9c1-1.7,2.5-3,4.4-3.9c1.9-0.9,4.2-1.4,7-1.4
		c4.1,0,7.1,0.9,9,2.6c1.9,1.7,2.8,4,2.8,7v14.4c0,2.6,0.2,5.6,0.5,9.2h-2.3c-0.3-3.5-0.5-6.2-0.5-8.1c-0.8,2.4-2.2,4.4-4.2,6.2
		C492,434.4,489.1,435.3,485.3,435.3z M485.5,433c2.9,0,5.3-0.7,7.2-2c1.9-1.3,3.3-3,4.2-5c0.9-2,1.3-4,1.3-6v-4.4
		c-0.8,0.5-1.6,0.9-2.3,1.2c-0.8,0.3-2,0.6-3.6,0.8l-7.1,1.2c-2.7,0.5-4.6,1.3-5.9,2.4c-1.3,1.2-1.9,2.8-1.9,5c0,2.3,0.7,4,2.2,5.1
		C481.2,432.5,483.1,433,485.5,433z"/>
	<path class="st0" d="M510,423.7c0.3,3,1.3,5.4,3.1,7.1c1.8,1.7,4.9,2.5,9.3,2.5c2.9,0,5.1-0.6,6.8-1.7c1.7-1.1,2.5-2.8,2.5-5.2
		c0-2-0.6-3.5-1.9-4.6s-3.2-1.8-5.9-2.1l-6.4-0.8c-2.9-0.3-5.1-1.2-6.6-2.6c-1.5-1.4-2.3-3.3-2.3-5.9c0-2.8,1-5,3.1-6.6
		c2.1-1.6,5-2.4,8.7-2.4c4.1,0,7.3,0.9,9.5,2.8s3.4,4.4,3.6,7.6h-2.4c-0.2-2.4-1.1-4.3-2.8-5.8c-1.7-1.5-4.3-2.3-7.9-2.3
		c-3.2,0-5.5,0.6-7,1.8c-1.5,1.2-2.2,2.9-2.2,5c0,1.6,0.5,3,1.5,4.1c1,1.1,2.7,1.8,5.1,2.1l6.6,0.8c3.3,0.4,5.8,1.3,7.4,2.7
		c1.6,1.3,2.5,3.4,2.5,6.3c0,3-1.1,5.3-3.2,6.9c-2.2,1.5-5.1,2.3-8.7,2.3c-5,0-8.6-1-10.9-3c-2.3-2-3.6-4.9-3.8-8.8H510z"/>
	<path class="st0" d="M541.8,389.5h2.6v44.9h-2.6V389.5z M543.2,426.1l-1.2-1.5c0.6-0.8,1.3-1.6,2.1-2.5c0.8-0.9,1.7-1.8,2.8-2.8
		l17.4-16.9h3.3v0.1L543.2,426.1z M551.6,417.1l1.7-1.4l16,18.7h-3.5L551.6,417.1z"/>
	<path class="st0" d="M606.5,435.5c-4.5,0-8.3-0.9-11.4-2.8c-3.1-1.8-5.4-4.4-7-7.8c-1.5-3.4-2.3-7.4-2.3-11.9
		c0-4.5,0.8-8.5,2.3-11.8c1.5-3.4,3.9-6,7-7.8c3.1-1.8,6.9-2.8,11.4-2.8c4,0,7.4,0.7,10.2,2.1c2.8,1.4,5,3.3,6.5,5.9
		c1.6,2.6,2.6,5.7,3,9.3h-2.8c-0.5-5.1-2.2-8.9-5-11.3c-2.8-2.4-6.8-3.6-12-3.6c-5.9,0-10.3,1.7-13.3,5c-3,3.3-4.5,8.4-4.5,15.1
		c0,6.8,1.5,11.8,4.5,15.2c3,3.4,7.4,5,13.3,5c5.3,0,9.4-1.4,12.3-4.2c2.9-2.8,4.5-6.9,4.8-12.4h2.8c-0.2,3.8-1.1,7.1-2.6,9.9
		c-1.5,2.8-3.8,5-6.6,6.6C614.3,434.7,610.7,435.5,606.5,435.5z"/>
	<path class="st0" d="M647.6,435.5c-3.3,0-6.1-0.7-8.4-2.1c-2.3-1.4-4-3.4-5.2-6c-1.2-2.6-1.7-5.6-1.7-9c0-3.4,0.6-6.3,1.7-8.9
		c1.2-2.5,2.9-4.5,5.2-6c2.3-1.4,5.1-2.1,8.4-2.1c3.3,0,6.1,0.7,8.4,2.1c2.3,1.4,4,3.4,5.2,6c1.2,2.5,1.7,5.5,1.7,8.9
		c0,3.4-0.6,6.4-1.7,9c-1.2,2.6-2.9,4.6-5.2,6C653.7,434.7,650.9,435.5,647.6,435.5z M635,418.3c0,4.9,1.1,8.6,3.3,11.1
		c2.2,2.5,5.3,3.8,9.3,3.8s7.1-1.2,9.3-3.8c2.2-2.5,3.3-6.2,3.3-11.1c0-4.9-1.1-8.6-3.3-11.1c-2.2-2.5-5.3-3.7-9.3-3.7
		s-7.1,1.2-9.3,3.7C636.1,409.7,635,413.4,635,418.3z"/>
	<path class="st0" d="M670,402.4h2.6v32.1H670V402.4z M692.9,413.1c0-3.5-0.7-6-2.1-7.4c-1.4-1.4-3.5-2.1-6.4-2.1
		c-4.3,0-7.4,1.8-9.2,5.5c-1.8,3.6-2.7,8.9-2.7,15.7h-1.2c0-5.8,0.5-10.4,1.5-13.9c1-3.4,2.5-5.9,4.5-7.3c2-1.5,4.5-2.2,7.5-2.2
		c3.5,0,6.1,0.9,7.9,2.7c1.8,1.8,2.7,4.6,2.7,8.4v21.9h-2.6V413.1z M715.9,413.1c0-3.5-0.7-6-2-7.4c-1.3-1.4-3.4-2.1-6.3-2.1
		c-4.3,0-7.4,1.8-9.3,5.5c-1.9,3.7-2.8,8.9-2.8,15.7h-1.2c0-5.8,0.5-10.4,1.6-13.9c1-3.4,2.6-5.9,4.6-7.3c2-1.5,4.5-2.2,7.5-2.2
		c3.4,0,6,0.9,7.8,2.7c1.8,1.8,2.7,4.6,2.7,8.4v21.9h-2.6V413.1z"/>
	<path class="st0" d="M727.6,402.4h2.6v44.9h-2.6V402.4z M742.8,435.5c-4.5,0-8-1.5-10.5-4.5c-2.5-3-3.7-7.2-3.7-12.6
		c0-5.3,1.2-9.5,3.7-12.5c2.5-3,6-4.5,10.5-4.5c4.7,0,8.2,1.5,10.5,4.5c2.4,3,3.6,7.2,3.6,12.6c0,5.4-1.2,9.6-3.6,12.6
		C751,434,747.5,435.5,742.8,435.5z M742.4,433.3c3.8,0,6.8-1.2,8.8-3.7c2-2.5,3-6.2,3-11.1c0-5-1-8.7-3-11.1
		c-2-2.5-4.9-3.7-8.8-3.7c-3.7,0-6.7,1.2-8.9,3.6c-2.2,2.4-3.3,6.1-3.3,11.2c0,5,1.1,8.8,3.3,11.2
		C735.7,432.1,738.7,433.3,742.4,433.3z"/>
	<path class="st0" d="M773.8,435.3c-2.9,0-5.4-0.8-7.4-2.3c-2-1.5-3-3.8-3-6.8c0-1.8,0.4-3.3,1.1-4.6c0.7-1.3,1.8-2.3,3.2-3.1
		c1.5-0.8,3.3-1.4,5.5-1.8l8.4-1.4c2-0.3,3.4-0.8,4.2-1.4c0.8-0.6,1.2-1.5,1.2-2.9c0-2.3-0.7-4.1-2.1-5.5c-1.4-1.4-3.9-2.1-7.4-2.1
		c-3.8,0-6.4,0.8-8,2.5c-1.6,1.7-2.5,3.8-2.7,6.5h-2.4c0.2-2.3,0.8-4.2,1.8-5.9c1-1.7,2.5-3,4.4-3.9c1.9-0.9,4.2-1.4,7-1.4
		c4.1,0,7.1,0.9,9,2.6c1.9,1.7,2.8,4,2.8,7v14.4c0,2.6,0.2,5.6,0.5,9.2h-2.3c-0.3-3.5-0.5-6.2-0.5-8.1c-0.8,2.4-2.2,4.4-4.2,6.2
		C780.6,434.4,777.6,435.3,773.8,435.3z M774,433c2.9,0,5.3-0.7,7.2-2c1.9-1.3,3.3-3,4.2-5c0.9-2,1.3-4,1.3-6v-4.4
		c-0.8,0.5-1.6,0.9-2.3,1.2c-0.8,0.3-2,0.6-3.6,0.8l-7.1,1.2c-2.7,0.5-4.6,1.3-5.9,2.4c-1.3,1.2-1.9,2.8-1.9,5c0,2.3,0.7,4,2.2,5.1
		C769.7,432.5,771.6,433,774,433z"/>
	<path class="st0" d="M798.1,402.4h2.6v32.1h-2.6V402.4z M799.5,424.7c0-8.4,1.3-14.4,3.9-18c2.6-3.6,6.2-5.4,10.9-5.4
		c3.6,0,6.3,1,8.2,2.9s2.8,4.9,2.8,8.9v21.3h-2.6v-20.7c0-3.6-0.7-6.2-2.1-7.8c-1.4-1.6-3.7-2.4-6.7-2.4c-4.3,0-7.5,1.9-9.8,5.7
		c-2.2,3.8-3.4,8.9-3.4,15.5H799.5z"/>
	<path class="st0" d="M829.9,402.4h2.8l12.2,28.3l1.3,3.7h-2.6L829.9,402.4z M832.2,445.1h7.6l4.7-11.1l0.7-1.3l0.7-2l12.2-28.3h2.7
		l-18.5,42.5c-0.3,0.6-0.5,1.1-0.7,1.4c-0.2,0.3-0.5,0.6-0.9,0.7c-0.4,0.2-0.8,0.3-1.4,0.3h-7.2V445.1z"/>
</g>
</svg>
